<?xml version="1.0" standalone="no"?>
<!DOCTYPE svg PUBLIC "-//W3C//DTD SVG 20010904//EN"
 "http://www.w3.org/TR/2001/REC-SVG-20010904/DTD/svg10.dtd">
<svg version="1.0" xmlns="http://www.w3.org/2000/svg"
 width="100.000000pt" height="100.000000pt" viewBox="0 0 500.000000 500.000000"
 preserveAspectRatio="xMidYMid meet">

<g transform="translate(0.000000,500.000000) scale(0.100000,-0.100000)"
fill="#000000" stroke="none">
<path d="M250 2580 l0 -700 258 2 257 3 -252 2 -253 3 0 690 0 690 2240 0
2240 0 0 -690 0 -690 -252 -3 -253 -2 258 -3 257 -2 0 700 0 700 -2250 0
-2250 0 0 -700z"/>
<path d="M2771 2833 c-51 -4 -53 -5 -32 -19 20 -15 21 -22 21 -238 0 -221 0
-224 -22 -239 -22 -15 -18 -16 67 -16 77 0 87 2 73 13 -16 11 -18 31 -18 143
0 115 2 132 19 147 11 10 31 16 48 14 l28 -3 3 -144 c2 -128 1 -145 -15 -157
-15 -11 11 -13 177 -13 176 1 192 2 163 15 -40 17 -47 49 -41 174 4 77 7 93
28 115 26 27 62 37 41 11 -7 -8 -11 -27 -9 -43 2 -23 8 -29 35 -31 25 -3 35 2
48 22 14 21 15 29 3 53 -19 40 -74 44 -117 8 l-31 -27 0 27 c0 25 -2 27 -31
21 -17 -3 -47 -6 -65 -6 l-34 0 20 -20 c18 -18 20 -33 20 -149 0 -104 -3 -133
-16 -145 -19 -19 -35 -20 -57 -3 -13 10 -16 37 -19 150 -3 132 -4 140 -27 158
-33 27 -110 26 -145 -2 l-26 -20 0 105 c0 95 -2 106 -17 104 -10 -1 -42 -3
-72 -5z"/>
<path d="M3454 2830 c-42 -17 -35 -83 10 -94 33 -8 76 9 77 31 2 26 -2 47 -9
55 -13 12 -57 17 -78 8z"/>
<path d="M3690 2818 c-37 -25 -58 -70 -59 -125 -1 -25 -6 -33 -23 -36 l-23 -4
23 -2 c22 -1 22 -3 22 -150 0 -143 -1 -149 -22 -164 -22 -15 -16 -16 82 -16
87 0 101 2 80 12 -14 6 -28 16 -32 22 -4 5 -8 74 -8 153 l0 142 54 0 54 0 4
-146 c3 -146 3 -146 31 -170 15 -13 39 -24 53 -24 32 0 80 25 88 45 10 27 7
29 -13 11 -11 -10 -28 -16 -38 -14 -16 3 -18 17 -21 150 l-3 147 43 4 43 4
-42 1 -43 2 0 56 c0 51 -2 55 -20 50 -11 -3 -29 -9 -40 -12 -15 -4 -20 -1 -20
14 0 64 -104 95 -170 50z m100 6 c0 -3 -7 -12 -15 -20 -8 -9 -15 -24 -15 -34
0 -24 41 -53 64 -44 13 5 16 -1 16 -29 l0 -35 -55 -1 -55 0 0 69 c0 49 4 73
16 84 15 15 44 22 44 10z"/>
<path d="M1788 2799 c-11 -6 -18 -22 -18 -42 0 -41 36 -138 44 -117 40 107 43
131 20 154 -18 19 -23 19 -46 5z"/>
<path d="M2300 2710 c0 -47 4 -80 10 -80 6 0 10 8 10 18 0 9 9 36 20 60 18 40
63 72 100 72 7 0 10 -69 8 -212 l-3 -213 -35 -17 -35 -18 130 1 c117 0 127 2
95 13 l-35 13 -3 218 -2 217 27 -6 c38 -9 80 -57 93 -107 6 -22 13 -39 14 -38
2 2 6 39 9 82 l7 77 -205 0 -205 0 0 -80z"/>
<path d="M1081 2652 c-50 -25 -74 -63 -78 -124 -9 -113 89 -191 181 -143 28
15 28 15 21 -13 -13 -52 -46 -92 -99 -119 -65 -33 -47 -40 30 -12 73 27 157
107 173 166 27 98 0 205 -61 243 -42 25 -120 26 -167 2z m115 -19 c12 -19 19
-54 22 -111 4 -76 3 -85 -18 -107 -29 -31 -51 -32 -76 -4 -27 30 -28 182 -1
222 22 35 50 34 73 0z"/>
<path d="M1443 2645 c-105 -64 -111 -241 -10 -304 172 -106 369 85 265 257
-44 73 -172 96 -255 47z m145 -8 c61 -65 46 -277 -22 -308 -33 -15 -72 9 -92
56 -28 69 -13 213 27 262 18 20 63 15 87 -10z"/>
<path d="M1919 2641 c-51 -51 -42 -83 46 -167 53 -50 75 -79 75 -96 0 -32 -18
-48 -52 -48 -34 0 -66 33 -74 77 -11 58 -24 47 -24 -21 0 -36 4 -66 9 -66 5 0
11 4 13 10 2 5 22 3 48 -7 112 -40 216 45 166 136 -7 13 -42 47 -77 75 -52 42
-64 57 -64 80 0 68 77 59 111 -13 l21 -44 5 54 c6 57 2 72 -12 49 -7 -11 -13
-12 -35 -2 -14 7 -49 12 -76 12 -42 0 -55 -5 -80 -29z"/>
<path d="M3446 2663 c-46 -4 -48 -5 -27 -19 20 -14 21 -24 21 -153 0 -132 -1
-139 -22 -154 -22 -15 -17 -16 72 -16 89 0 94 1 73 16 -22 15 -23 21 -23 174
0 159 0 159 -22 157 -13 -1 -45 -3 -72 -5z"/>
<path d="M1374 1932 c-37 -24 -36 -91 1 -106 44 -17 95 12 95 54 0 42 -62 75
-96 52z m70 -34 c15 -24 -3 -52 -37 -56 -33 -4 -53 28 -37 59 14 25 58 23 74
-3z"/>
<path d="M1590 1880 c0 -33 4 -60 10 -60 6 0 10 17 10 38 l1 37 30 -37 c17
-21 35 -38 40 -38 5 0 9 27 9 60 0 68 -17 82 -22 18 l-3 -42 -29 42 c-16 23
-33 42 -37 42 -5 0 -9 -27 -9 -60z"/>
<path d="M1820 1880 l0 -60 35 0 c19 0 35 5 35 10 0 6 -11 10 -25 10 -23 0
-25 3 -25 50 0 28 -4 50 -10 50 -6 0 -10 -27 -10 -60z"/>
<path d="M2000 1880 c0 -33 4 -60 10 -60 6 0 10 27 10 60 0 33 -4 60 -10 60
-6 0 -10 -27 -10 -60z"/>
<path d="M2150 1880 c0 -33 4 -60 10 -60 6 0 10 19 10 42 l0 42 31 -42 c17
-23 35 -42 40 -42 5 0 9 27 9 60 0 33 -4 60 -10 60 -5 0 -10 -19 -10 -42 l0
-42 -31 42 c-17 23 -35 42 -40 42 -5 0 -9 -27 -9 -60z"/>
<path d="M2380 1880 l0 -60 40 0 c22 0 40 5 40 10 0 6 -13 10 -30 10 -20 0
-30 5 -30 15 0 9 9 15 25 15 14 0 25 5 25 10 0 6 -11 10 -25 10 -16 0 -25 6
-25 15 0 10 10 15 30 15 17 0 30 5 30 10 0 6 -18 10 -40 10 l-40 0 0 -60z"/>
<path d="M2733 1934 c-24 -10 -14 -43 17 -59 42 -22 39 -39 -5 -32 -39 6 -48
-9 -11 -19 63 -15 90 37 34 64 -38 18 -36 36 3 28 22 -4 29 -2 27 7 -5 13 -44
19 -65 11z"/>
<path d="M2910 1930 c0 -5 7 -10 15 -10 11 0 15 -12 15 -50 0 -27 5 -50 10
-50 6 0 10 23 10 50 0 43 3 50 20 50 11 0 20 5 20 10 0 6 -20 10 -45 10 -25 0
-45 -4 -45 -10z"/>
<path d="M3127 1922 c-36 -40 -9 -102 45 -102 51 0 78 69 40 103 -24 22 -65
21 -85 -1z m77 -24 c16 -26 -4 -53 -40 -53 -25 0 -30 4 -32 29 -6 46 47 63 72
24z"/>
<path d="M3350 1880 c0 -33 4 -60 10 -60 6 0 10 9 10 20 0 27 25 25 44 -2 9
-12 19 -19 22 -15 4 4 1 13 -5 21 -8 10 -9 16 -1 21 5 3 10 19 10 35 0 30 -14
40 -61 40 -29 0 -29 0 -29 -60z m74 25 c3 -8 -3 -19 -14 -25 -30 -16 -40 -12
-40 15 0 20 5 25 24 25 13 0 26 -7 30 -15z"/>
<path d="M3570 1880 l0 -60 40 0 c22 0 40 5 40 10 0 6 -13 10 -30 10 -20 0
-30 5 -30 15 0 9 9 15 25 15 14 0 25 5 25 10 0 6 -11 10 -25 10 -16 0 -25 6
-25 15 0 10 10 15 30 15 17 0 30 5 30 10 0 6 -18 10 -40 10 l-40 0 0 -60z"/>
</g>
</svg>
